<!DOCTYPE svg PUBLIC "-//W3C//DTD SVG 1.1//EN" "http://www.w3.org/Graphics/SVG/1.1/DTD/svg11.dtd">
<!-- Uploaded to: SVG Repo, www.svgrepo.com, Transformed by: SVG Repo Mixer Tools -->
<svg width="800px" height="800px" viewBox="0 0 400 400" fill="none" xmlns="http://www.w3.org/2000/svg">
<g id="SVGRepo_bgCarrier" stroke-width="0"/>
<g id="SVGRepo_tracerCarrier" stroke-linecap="round" stroke-linejoin="round"/>
<g id="SVGRepo_iconCarrier"> <path d="M164.145 176.955C178.367 172.087 189.672 171.387 207.336 162.693C225 154 245.45 131 248.541 131C249.005 131 251.354 146.76 251.52 147.902C255.073 172.477 256.485 195.558 256.485 220.269C256.485 230.28 254.498 240.092 254.498 249.85C254.498 252.743 253.515 255.083 253.009 257.774C252.815 258.81 253.898 261.416 253.009 260.943C248.134 258.35 242.81 251.82 237.123 248.794C214.155 236.575 190.818 229 165.606 226.543" stroke="#000000" stroke-opacity="0.9" stroke-width="16" stroke-linecap="round" stroke-linejoin="round"/> <path opacity="0.503384" d="M165.605 277.96C159.726 264.534 157.521 249.358 156.299 234.28C154.83 216.152 157.056 178.913 154.83 175.685C148.638 166.706 89.3203 182.548 86.7502 189.534C85.0085 194.273 85.3115 202.355 84.7915 207.453C84.3699 211.577 83.2437 224.213 84.7915 228.421C85.1689 229.447 123.275 232.455 126.423 235.878C127.632 237.194 132.313 267.007 136.708 273.698C143.342 283.8 152.381 287.219 157.768 283.595" stroke="#000000" stroke-opacity="0.9" stroke-width="16" stroke-linecap="round"/> <path opacity="0.503384" d="M298.215 115C291.311 117.358 285.334 125 277.813 125" stroke="#000000" stroke-opacity="0.9" stroke-width="16" stroke-linecap="round"/> <path opacity="0.503384" d="M313.413 168.872C304.714 166.851 294.526 168.734 285.593 169.982" stroke="#000000" stroke-opacity="0.9" stroke-width="16" stroke-linecap="round"/> <path opacity="0.503384" d="M315.268 223.982C308.675 219.455 301.984 220.003 294.866 220.003" stroke="#000000" stroke-opacity="0.9" stroke-width="16" stroke-linecap="round"/> <path opacity="0.503384" d="M304.705 277C299.072 273.352 293.058 270.248 287.086 267" stroke="#000000" stroke-opacity="0.9" stroke-width="16" stroke-linecap="round"/> </g>
</svg>